<?xml version="1.0" standalone="no"?>
<!DOCTYPE svg PUBLIC "-//W3C//DTD SVG 20010904//EN"
 "http://www.w3.org/TR/2001/REC-SVG-20010904/DTD/svg10.dtd">
<svg version="1.0" xmlns="http://www.w3.org/2000/svg"
 width="619.000000pt" height="403.000000pt" viewBox="0 0 619.000000 403.000000"
 preserveAspectRatio="xMidYMid meet">

<g transform="translate(0.000000,403.000000) scale(0.100000,-0.100000)"
fill="#000000" stroke="none">
<path d="M2825 3635 c-307 -49 -581 -186 -811 -407 -126 -122 -185 -197 -266
-338 -182 -318 -248 -628 -203 -956 47 -353 190 -639 445 -894 224 -225 472
-356 815 -431 83 -19 438 -19 525 0 341 72 591 203 822 433 167 165 299 377
372 598 55 166 67 239 73 430 8 265 -21 422 -123 658 -112 258 -269 454 -509
635 -164 123 -446 241 -652 272 -123 18 -374 18 -488 0z m735 -1242 c0 -438
-4 -732 -10 -772 -16 -94 -57 -166 -142 -247 -118 -112 -196 -137 -428 -138
-119 0 -145 3 -220 27 -153 47 -236 116 -294 242 -42 90 -47 118 -53 283 l-6
162 182 0 c99 0 184 1 189 3 4 1 9 -61 12 -138 3 -77 11 -152 17 -166 18 -41
77 -86 123 -94 23 -4 67 -4 97 0 45 5 61 13 92 44 64 64 65 73 58 610 -3 262
-3 569 0 684 l6 207 189 0 188 0 0 -707z"/>
</g>
</svg>
